<mxfile host="app.diagrams.net" agent="Mozilla/5.0 (X11; Linux x86_64) AppleWebKit/537.36 (KHTML, like Gecko) Chrome/139.0.0.0 Safari/537.36" version="28.1.0">
  <diagram name="Grafo" id="cPNVFtW21b-8gdh04QXF">
    <mxGraphModel dx="574" dy="237" grid="1" gridSize="10" guides="1" tooltips="1" connect="1" arrows="1" fold="1" page="1" pageScale="1" pageWidth="1169" pageHeight="827" math="1" shadow="0">
      <root>
        <mxCell id="0" />
        <mxCell id="1" parent="0" />
        <mxCell id="qdrTqcAHPgZISdD3w1g_-8" style="rounded=0;orthogonalLoop=1;jettySize=auto;html=1;endArrow=none;endFill=0;" edge="1" parent="1" source="qdrTqcAHPgZISdD3w1g_-1" target="qdrTqcAHPgZISdD3w1g_-3">
          <mxGeometry relative="1" as="geometry" />
        </mxCell>
        <mxCell id="qdrTqcAHPgZISdD3w1g_-1" value="$$x_A$$" style="ellipse;whiteSpace=wrap;html=1;aspect=fixed;fillColor=#dae8fc;strokeColor=#6c8ebf;" vertex="1" parent="1">
          <mxGeometry x="150" y="120" width="40" height="40" as="geometry" />
        </mxCell>
        <mxCell id="qdrTqcAHPgZISdD3w1g_-6" style="rounded=0;orthogonalLoop=1;jettySize=auto;html=1;endArrow=none;endFill=0;" edge="1" parent="1" source="qdrTqcAHPgZISdD3w1g_-2" target="qdrTqcAHPgZISdD3w1g_-1">
          <mxGeometry relative="1" as="geometry" />
        </mxCell>
        <mxCell id="qdrTqcAHPgZISdD3w1g_-7" style="rounded=0;orthogonalLoop=1;jettySize=auto;html=1;endArrow=none;endFill=0;" edge="1" parent="1" source="qdrTqcAHPgZISdD3w1g_-2" target="qdrTqcAHPgZISdD3w1g_-4">
          <mxGeometry relative="1" as="geometry" />
        </mxCell>
        <mxCell id="qdrTqcAHPgZISdD3w1g_-2" value="$$x_D$$" style="ellipse;whiteSpace=wrap;html=1;aspect=fixed;fontStyle=1;fillColor=#dae8fc;strokeColor=#6c8ebf;" vertex="1" parent="1">
          <mxGeometry x="140" y="210" width="40" height="40" as="geometry" />
        </mxCell>
        <mxCell id="qdrTqcAHPgZISdD3w1g_-3" value="$$x_B$$" style="ellipse;whiteSpace=wrap;html=1;aspect=fixed;fillColor=#fff2cc;strokeColor=#d6b656;" vertex="1" parent="1">
          <mxGeometry x="90" y="70" width="40" height="40" as="geometry" />
        </mxCell>
        <mxCell id="qdrTqcAHPgZISdD3w1g_-5" style="rounded=0;orthogonalLoop=1;jettySize=auto;html=1;endArrow=none;endFill=0;" edge="1" parent="1" source="qdrTqcAHPgZISdD3w1g_-4" target="qdrTqcAHPgZISdD3w1g_-1">
          <mxGeometry relative="1" as="geometry" />
        </mxCell>
        <mxCell id="qdrTqcAHPgZISdD3w1g_-4" value="$$x_C$$" style="ellipse;whiteSpace=wrap;html=1;aspect=fixed;fillColor=#dae8fc;strokeColor=#6c8ebf;" vertex="1" parent="1">
          <mxGeometry x="250" y="100" width="40" height="40" as="geometry" />
        </mxCell>
      </root>
    </mxGraphModel>
  </diagram>
</mxfile>
